HIERARCHY
ROOT Hips
{
	OFFSET 0.000000 0.000000 0.000000 
	CHANNELS 6 Xposition Yposition Zposition Zrotation Yrotation Xrotation
	JOINT LeftUpLeg
	{
		OFFSET 1.363060 -1.794630 0.839290 
		CHANNELS 3 Zrotation Yrotation Xrotation
		JOINT LeftLeg
		{
			OFFSET 2.448110 -6.726130 0.000000 
			CHANNELS 3 Zrotation Yrotation Xrotation
			JOINT LeftFoot
			{
				OFFSET 2.562200 -7.039590 0.000000 
				CHANNELS 3 Zrotation Yrotation Xrotation
				JOINT LeftToeBase
				{
					OFFSET 0.157640 -0.433110 2.322550 
					CHANNELS 3 Zrotation Yrotation Xrotation
					End Site
					{
						OFFSET 0.000000 0.000000 0.000000 
					}
				}
			}
		}
	}
	JOINT RightUpLeg
	{
		OFFSET -1.305520 -1.794630 0.839290 
		CHANNELS 3 Zrotation Yrotation Xrotation
		JOINT RightLeg
		{
			OFFSET -2.542530 -6.985550 0.000000 
			CHANNELS 3 Zrotation Yrotation Xrotation
			JOINT RightFoot
			{
				OFFSET -2.568260 -7.056230 0.000000 
				CHANNELS 3 Zrotation Yrotation Xrotation
				JOINT RightToeBase
				{
					OFFSET -0.164730 -0.452590 2.363150 
					CHANNELS 3 Zrotation Yrotation Xrotation
					End Site
					{
						OFFSET 0.000000 0.000000 0.000000 
					}
				}
			}
		}
	}
	JOINT Spine
	{
		OFFSET 0.028270 2.035590 -0.193380 
		CHANNELS 3 Zrotation Yrotation Xrotation
		JOINT Spine1
		{
			OFFSET 0.056720 2.048850 -0.042750 
			CHANNELS 3 Zrotation Yrotation Xrotation
			JOINT Neck1
			{
				OFFSET -0.054170 1.746240 0.172020 
				CHANNELS 3 Zrotation Yrotation Xrotation
				JOINT Head
				{
					OFFSET 0.104070 1.761360 -0.123970 
					CHANNELS 3 Zrotation Yrotation Xrotation
					End Site
					{
						OFFSET 0.000000 0.000000 0.000000 
					}
				}
			}
			JOINT LeftArm
			{
				OFFSET 3.362410 1.200890 -0.311210 
				CHANNELS 3 Zrotation Yrotation Xrotation
				JOINT LeftForeArm
				{
					OFFSET 4.983000 -0.000000 -0.000000 
					CHANNELS 3 Zrotation Yrotation Xrotation
					JOINT LeftHand
					{
						OFFSET 3.483560 -0.000000 -0.000000 
						CHANNELS 3 Zrotation Yrotation Xrotation
						JOINT LeftHandIndex1
						{
							OFFSET 0.715260 -0.000000 -0.000000 
							CHANNELS 3 Zrotation Yrotation Xrotation
							End Site
							{
								OFFSET 0.000000 0.000000 0.000000 
							}
						}
					}
				}
			}
			JOINT RightArm
			{
				OFFSET -3.136600 1.374050 -0.404650 
				CHANNELS 3 Zrotation Yrotation Xrotation
				JOINT RightForeArm
				{
					OFFSET -5.241900 -0.000000 -0.000000 
					CHANNELS 3 Zrotation Yrotation Xrotation
					JOINT RightHand
					{
						OFFSET -3.444170 -0.000000 -0.000000 
						CHANNELS 3 Zrotation Yrotation Xrotation
						JOINT RightHandIndex1
						{
							OFFSET -0.622530 -0.000000 -0.000000 
							CHANNELS 3 Zrotation Yrotation Xrotation
							End Site
							{
								OFFSET 0.000000 0.000000 0.000000 
							}
						}
					}
				}
			}
		}
	}
}
MOTION
Frames: 9
Frame Time: 0.041667
0.058378 17.731039 -17.643671 -0.028532 4.443474 0.049696 -13.740419 0.064749 -7.408153 1.507298 9.729759 26.931522 1.920396 -9.351152 -4.190285 0.303700 -3.543100 -9.794600 15.899208 0.895817 -8.001413 -3.087387 -11.867651 32.384797 -0.453637 -1.678814 -14.375539 -0.214000 2.978500 -8.218900 1.321814 1.864700 -0.576260 4.235524 1.267606 -5.180852 1.689091 -1.876507 21.369193 4.576900 -2.713000 13.116900 -101.495627 6.490298 17.061506 13.393640 -21.746334 -1.966175 1.147249 0.098476 7.765920 -7.125000 0.000000 0.000000 99.608689 2.730502 26.914910 -20.731163 32.102089 -5.926616 0.231290 0.559708 -0.927904 7.125000 0.000000 0.000000 
0.059073 17.735408 -17.630367 -0.042213 4.686161 0.005254 -13.738502 -0.031304 -7.257871 1.492880 9.706048 26.853770 1.922827 -9.374157 -4.180887 0.311800 -3.589800 -9.925500 15.903837 0.709579 -7.858256 -3.047543 -11.822782 32.199399 -0.450812 -1.694564 -14.367604 -0.196100 2.851800 -7.866500 1.289851 1.921859 -0.612758 4.145332 1.295386 -5.232573 1.750488 -1.984726 21.554064 4.591900 -2.767300 13.225900 -101.470508 6.282375 16.652433 13.337991 -21.655346 -1.948307 1.144424 0.081405 7.924116 -7.125000 0.000000 0.000000 99.653646 2.617005 27.290304 -21.026702 32.494963 -6.140578 0.217700 0.551509 -1.453730 7.125000 0.000000 0.000000 
0.059967 17.738287 -17.615375 -0.122092 4.694222 -0.084324 -13.677835 -0.084376 -7.046362 1.478469 9.684239 26.773162 1.905486 -9.229424 -4.203296 0.315800 -3.612600 -9.989400 16.022870 0.728041 -7.672014 -3.013463 -11.782591 32.042358 -0.399871 -1.999367 -14.356885 -0.258100 3.268800 -9.028100 1.255307 2.064622 -0.671742 4.021554 1.365715 -5.339682 1.839698 -2.220054 21.658119 4.622300 -2.880100 13.270000 -101.387922 6.367413 16.500989 13.452205 -21.834060 -1.980057 1.150247 0.090298 7.770934 -7.125000 0.000000 0.000000 99.724689 2.213127 27.700728 -21.395809 32.956214 -6.382101 0.196515 0.552931 -1.884591 7.125000 0.000000 0.000000 
0.063938 17.740868 -17.600781 -0.127536 4.723554 -0.151896 -13.713693 -0.172220 -6.845640 1.470149 9.671709 26.726811 1.888022 -9.087695 -4.246171 0.318800 -3.629600 -10.036900 16.012696 0.621455 -7.538649 -2.982770 -11.747671 31.898323 -0.377465 -2.090307 -14.242435 -0.321700 3.645800 -10.082400 1.234473 2.135262 -0.744552 3.958049 1.405218 -5.478688 1.834667 -2.331772 21.695861 4.630600 -2.948200 13.274200 -101.378418 6.619559 16.341967 13.633838 -22.130848 -2.040061 1.156295 0.101031 7.491907 -7.125000 0.000000 0.000000 99.687142 1.818925 28.336205 -21.652063 33.260260 -6.535176 0.195745 0.554645 -2.069526 7.125000 0.000000 0.000000 
0.065924 17.745336 -17.588569 -0.149774 4.781122 -0.132259 -13.712733 -0.264347 -6.753797 1.464293 9.661734 26.692586 1.880847 -9.012521 -4.306395 0.325700 -3.668100 -10.144700 16.006227 0.562246 -7.454796 -2.959278 -11.719370 31.785560 -0.374983 -2.099105 -14.225093 -0.340100 3.747500 -10.367300 1.253388 2.153515 -0.738756 3.978247 1.413590 -5.384565 1.751735 -2.293109 21.715473 4.612700 -2.949900 13.325200 -101.524449 6.495729 15.831954 13.695947 -22.262441 -2.076876 1.154199 0.073404 7.508538 -7.125000 0.000000 0.000000 99.556733 1.812856 29.069820 -21.809118 33.447635 -6.622704 0.217596 0.548944 -2.143179 7.125000 0.000000 0.000000 
0.064732 17.746825 -17.580329 -0.172264 4.847936 -0.137123 -13.692498 -0.371620 -6.663017 1.457701 9.651691 26.658189 1.875445 -8.964271 -4.326096 0.318400 -3.627100 -10.029800 16.018052 0.488915 -7.383904 -2.939644 -11.697255 31.696525 -0.353411 -2.238852 -14.249357 -0.395300 4.036800 -11.180300 1.255970 2.171968 -0.767521 3.986531 1.424130 -5.380460 1.772818 -2.288452 21.675915 4.637500 -2.952000 13.305800 -101.645397 6.223126 15.177131 13.610341 -22.143972 -2.056210 1.149270 0.030399 7.481358 -7.125000 0.000000 0.000000 99.511473 1.693165 29.695013 -21.878176 33.527516 -6.654092 0.244133 0.542416 -2.186505 7.125000 0.000000 0.000000 
0.065725 17.745634 -17.571592 -0.225287 4.911404 -0.167655 -13.652589 -0.451003 -6.571442 1.452762 9.643502 26.630077 1.864264 -8.871458 -4.347208 0.324000 -3.658400 -10.117700 16.026006 0.191493 -7.353290 -2.918280 -11.672040 31.592312 -0.359235 -2.158526 -14.128902 -0.447300 4.291100 -11.897100 1.235435 2.198619 -0.832117 3.918250 1.436493 -5.431394 1.955026 -2.275080 21.583552 4.733000 -2.928000 13.202100 -101.629942 6.220321 14.850295 13.648575 -22.214875 -2.078420 1.145876 0.013475 6.829091 -7.125000 0.000000 0.000000 99.510883 1.500127 30.360136 -21.757041 33.383121 -6.586133 0.255315 0.539263 -2.225609 7.125000 0.000000 0.000000 
0.066618 17.744740 -17.560274 -0.278820 5.021380 -0.179781 -13.602673 -0.479864 -6.491232 1.446895 9.633198 26.593875 1.865290 -8.860080 -4.390877 0.346400 -3.781900 -10.464000 16.029173 -0.212330 -7.341890 -2.891478 -11.639287 31.457827 -0.378688 -1.963638 -13.923740 -0.453200 4.318900 -11.975600 1.225158 2.209142 -0.814025 3.867293 1.431504 -5.266736 2.194799 -2.321170 21.557564 4.848200 -2.926600 13.214300 -101.608319 6.185398 14.805968 13.848865 -22.559349 -2.165327 1.143979 0.016951 5.991419 -7.125000 0.000000 0.000000 99.470124 1.621745 31.057614 -21.617406 33.224797 -6.516975 0.260509 0.535612 -2.221406 7.125000 0.000000 0.000000 
0.062846 17.744740 -17.551140 -0.267402 5.272782 -0.217154 -13.587440 -0.537388 -6.347944 1.433454 9.612003 26.520204 1.889414 -9.042506 -4.385304 0.348400 -3.792400 -10.493300 16.011319 -0.529077 -7.278061 -2.863480 -11.608879 31.326459 -0.383724 -1.909783 -13.857727 -0.438300 4.248300 -11.776300 1.211834 2.154650 -0.778095 3.856665 1.396184 -5.139611 2.416922 -2.457271 21.651305 4.947200 -2.975600 13.362000 -101.645332 5.968543 14.522655 13.979759 -22.781887 -2.212273 1.146834 0.022154 5.710565 -7.125000 0.000000 0.000000 99.447947 1.783458 31.682389 -21.582190 33.189331 -6.508366 0.262795 0.533250 -2.130351 7.125000 0.000000 0.000000 
